<?xml version="1.0" encoding="utf-8"?>
<!-- Generator: Adobe Illustrator 26.0.3, SVG Export Plug-In . SVG Version: 6.00 Build 0)  -->
<svg version="1.1" id="Layer_1" xmlns="http://www.w3.org/2000/svg" xmlns:xlink="http://www.w3.org/1999/xlink" x="0px" y="0px"
	 viewBox="0 0 290.6 290.6" style="enable-background:new 0 0 290.6 290.6;" xml:space="preserve">
<style type="text/css">
	.st0{fill:#35BB78;}
	.st1{fill:#6C55F9;}
</style>
<g>
	<g>
		<polygon class="st0" points="206.2,288.1 196.9,147.5 225,147.5 168.8,81.9 112.5,147.5 140.6,147.5 131.2,288.1 		"/>
		<path class="st1" d="M243.8,44.4V2.2H0v215.6c0,15.5,12.6,28.1,28.1,28.1h101.2l-2.8,41.9l9.4,0.6l9.7-145.6h-22.9l46.1-53.7
			l46.1,53.7h-22.9l9.7,145.6l9.4-0.6l-2.8-41.9h54.4c15.5,0,28.1-12.6,28.1-28.1V44.4H243.8z M9.4,217.8V11.6h225v32.8H129.5
			l-9.4-18.8H46.9v192.2c0,10.3-8.4,18.8-18.8,18.8S9.4,228.2,9.4,217.8z M281.2,217.8c0,10.3-8.4,18.8-18.8,18.8h-55l-5.6-84.4
			h33.3l-66.4-77.5l-66.4,77.5h33.3l-5.6,84.4H49c4.5-5,7.2-11.5,7.2-18.8V35h58l9.4,18.8h157.6V217.8z"/>
	</g>
</g>
</svg>
