<?xml version="1.0" encoding="utf-8"?>
<!-- Generator: Adobe Illustrator 26.0.3, SVG Export Plug-In . SVG Version: 6.00 Build 0)  -->
<svg version="1.1" id="Layer_1" xmlns="http://www.w3.org/2000/svg" xmlns:xlink="http://www.w3.org/1999/xlink" x="0px" y="0px"
	 viewBox="0 0 490 490" style="enable-background:new 0 0 490 490;" xml:space="preserve">
<style type="text/css">
	.st0{fill:#FFFFFF;}
	.st1{fill:#AFB6BB;}
	.st2{fill:#6C55F9;}
	.st3{fill:#35BB78;}
</style>
<g>
	<g id="XMLID_45_">
		<g>
			<polygon class="st0" points="430,110 430,480 60,480 60,10 330,10 330,110 			"/>
			<polygon class="st1" points="430,110 330,110 330,10 			"/>
		</g>
		<g>
			<path class="st2" d="M440,110c0-2.6-1-5.2-2.9-7.1l-100-100C335.2,1,332.6,0,330,0v0H60c-5.5,0-10,4.5-10,10v470
				c0,5.5,4.5,10,10,10h370c5.5,0,10-4.5,10-10L440,110L440,110z M340,34.1l65.9,65.9H340V34.1z M70,470V20h250v90
				c0,5.5,4.5,10,10,10h90v350H70z"/>
			<path class="st3" d="M125,180.9l-17.9-17.9l-14.1,14.1l25,25c2,2,4.5,2.9,7.1,2.9s5.1-1,7.1-2.9l50-50l-14.1-14.1L125,180.9z"/>
			<rect x="200" y="150" class="st2" width="50" height="20"/>
			<rect x="200" y="180" class="st2" width="110" height="20"/>
			<rect x="265" y="150" class="st2" width="130" height="20"/>
			<path class="st3" d="M125,260.9l-17.9-17.9l-14.1,14.1l25,25c2,2,4.5,2.9,7.1,2.9s5.1-1,7.1-2.9l50-50l-14.1-14.1L125,260.9z"/>
			<rect x="200" y="230" class="st2" width="50" height="20"/>
			<rect x="200" y="260" class="st2" width="110" height="20"/>
			<rect x="265" y="230" class="st2" width="130" height="20"/>
			<path class="st3" d="M125,340.9l-17.9-17.9l-14.1,14.1l25,25c2,2,4.5,2.9,7.1,2.9s5.1-1,7.1-2.9l50-50l-14.1-14.1L125,340.9z"/>
			<rect x="200" y="310" class="st2" width="50" height="20"/>
			<rect x="200" y="340" class="st2" width="110" height="20"/>
			<rect x="265" y="310" class="st2" width="130" height="20"/>
			<path class="st3" d="M125,420.9l-17.9-17.9l-14.1,14.1l25,25c2,2,4.5,2.9,7.1,2.9s5.1-1,7.1-2.9l50-50l-14.1-14.1L125,420.9z"/>
			<rect x="200" y="390" class="st2" width="50" height="20"/>
			<rect x="200" y="420" class="st2" width="110" height="20"/>
			<rect x="265" y="390" class="st2" width="130" height="20"/>
			<rect x="95" y="45" class="st2" width="50" height="20"/>
			<rect x="95" y="75" class="st2" width="105" height="20"/>
		</g>
	</g>
</g>
</svg>
